<svg width="104" height="44" viewBox="0 0 104 44" fill="none" xmlns="http://www.w3.org/2000/svg">
<rect x="0.5" y="0.5" width="103" height="43" rx="10.5" stroke="#EFEFEF"/>
<path d="M76.6665 22H87.3332M81.9998 27.3333V22L81.9998 16.6667" stroke="#359740" stroke-width="1.5" stroke-linecap="round"/>
<path d="M16.6665 22H27.3332" stroke="#359740" stroke-width="1.5" stroke-linecap="round"/>
<rect x="36" y="6" width="32" height="32" rx="6" fill="#359740" fill-opacity="0.08"/>
<path d="M48.296 28L47.768 26.688L51.128 22.928C51.32 22.736 51.5173 22.5173 51.72 22.272C51.9227 22.016 52.1147 21.7547 52.296 21.488C52.488 21.2107 52.6427 20.944 52.76 20.688C52.8773 20.4213 52.936 20.176 52.936 19.952C52.936 19.664 52.872 19.4133 52.744 19.2C52.6267 18.9867 52.456 18.8213 52.232 18.704C52.008 18.5867 51.7307 18.528 51.4 18.528C51.112 18.528 50.8293 18.6133 50.552 18.784C50.2853 18.944 50.0347 19.1787 49.8 19.488C49.576 19.7867 49.3893 20.144 49.24 20.56L47.672 19.632C47.864 19.0133 48.152 18.48 48.536 18.032C48.9307 17.5733 49.3893 17.2213 49.912 16.976C50.4453 16.7307 51.0213 16.608 51.64 16.608C52.28 16.608 52.8507 16.7413 53.352 17.008C53.8533 17.2747 54.248 17.6427 54.536 18.112C54.8347 18.5813 54.984 19.1307 54.984 19.76C54.984 19.9947 54.9573 20.24 54.904 20.496C54.8507 20.7413 54.7653 21.0027 54.648 21.28C54.5413 21.5467 54.3973 21.8293 54.216 22.128C54.0347 22.416 53.816 22.72 53.56 23.04C53.3147 23.36 53.032 23.696 52.712 24.048L50.168 26.816L49.848 26.08H55.384V28H48.296Z" fill="#359740"/>
</svg>
