<svg width="28" height="28" viewBox="0 0 28 28" fill="none" xmlns="http://www.w3.org/2000/svg">
<path d="M7.01166 6.53997C6.82791 7.12356 7.28417 8.41475 7.4852 8.63981L7.31006 8.93704L10.8536 21.3102C11.0528 22.0594 11.6301 22.1064 11.8939 22.0363L21.1521 19.575C22.0716 19.4642 22.2297 18.9543 22.1938 18.7132L18.7839 5.8867L18.4052 5.73673C18.5609 5.47253 18.6515 4.11393 18.169 3.57377C17.5659 2.89857 7.24134 5.81048 7.01166 6.53997Z" stroke="#359740" stroke-width="1.5"/>
<path d="M4.03846 13.1508C3.95237 13.7722 4.69256 14.8968 4.95265 15.0576L4.82083 15.3978L11.0201 26.4148C11.3789 27.0864 12.0106 26.9646 12.2817 26.8198L21.7953 21.7373C22.7658 21.3627 22.8384 20.8204 22.7534 20.5961L16.6112 9.09891L16.1738 9.06281C16.291 8.76044 16.1278 7.41153 15.5036 7.02569C14.7233 6.54339 4.14606 12.374 4.03846 13.1508Z" fill="white" stroke="#359740" stroke-width="1.5"/>
</svg>
